<?xml version="1.0" encoding="UTF-8"?> <svg xmlns="http://www.w3.org/2000/svg" id="b" viewBox="0 0 834.11 278.21"><g id="c"><g id="d"><path id="e" d="M112.07,167.55l-41.54,110.66-27.87-43.45,27.42-51.27,41.98-15.94Z" style="fill:#948bf4;"></path><path id="f" d="M104.2,115.49l6.83,4.83-36.17,52.07,29.33-56.89Z" style="fill:#948bf4;"></path><path id="g" d="M157.6,64.86l29.77,66.31-105.57,42.74,75.79-109.05Z" style="fill:#948bf4;"></path><path id="h" d="M214.3,61.16l22.56,22.78-29.68,3.18,7.12-25.96Z" style="fill:#948bf4;"></path><path id="i" d="M208.24,60.21l-5.44,19.83s-.01.03-.01.05l-11.92,43.46-27.87-62.06,45.24-1.29Z" style="fill:#948bf4;"></path><path id="j" d="M107.43,30.44l-48.44,60.34L22.07,52.64l85.36-22.2Z" style="fill:#948bf4;"></path><path id="k" d="M107.43,30.44L0,58.38l46.47,48L107.43,30.44Z" style="fill:#948bf4;"></path><path id="l" d="M116.36,29.41l37.55,29.7-39.01,56.13-43.13-30.3,44.59-55.53Z" style="fill:#948bf4;"></path><path id="m" d="M116.36,29.41l-44.59,55.53,43.13,30.3,39.01-56.13-37.55-29.7Z" style="fill:#948bf4;"></path><path id="n" d="M133.46,0l33.84,55.06-8.05.23-41.41-32.75c-.05-.04-.1-.07-.15-.11-.36-.26-.76-.44-1.17-.52-.41-.09-.85-.09-1.29,0-.07.01-.13.03-.2.05l-36.23,9.2-7.71-17.39L133.46,0Z" style="fill:#948bf4;"></path></g><path d="M298.88,186.22c-5.38,0-10.14-1.42-14.27-4.25-4.13-2.84-7.35-6.86-9.65-12.08-2.3-5.22-3.45-11.38-3.45-18.5s1.16-13.27,3.48-18.47c2.32-5.2,5.54-9.21,9.65-12.02,4.11-2.81,8.86-4.22,14.24-4.22,4.36,0,8.67,1.09,12.95,3.27,4.27,2.18,7.5,5.86,9.68,11.04l-1.17.49v-39.21h10.36v92.48h-9.74v-13.87l.31.99c-1.81,4.85-4.81,8.46-9,10.82-4.19,2.36-8.65,3.54-13.38,3.54ZM301.59,177.58c3.49,0,6.68-.9,9.56-2.71,2.88-1.81,5.18-4.63,6.9-8.48,1.73-3.84,2.59-8.76,2.59-14.77,0-8.96-1.85-15.59-5.55-19.88-3.7-4.29-8.16-6.44-13.38-6.44-5.51,0-10.03,2.27-13.56,6.81-3.54,4.54-5.3,11.05-5.3,19.51s1.71,14.6,5.12,19.14c3.41,4.54,7.95,6.81,13.62,6.81Z" style="fill:#fff;"></path><path d="M372.34,186.22c-6.33,0-11.81-1.42-16.43-4.25s-8.19-6.85-10.7-12.05c-2.51-5.2-3.76-11.33-3.76-18.4s1.25-13.28,3.76-18.5c2.51-5.22,6.04-9.25,10.6-12.08,4.56-2.84,9.93-4.25,16.09-4.25,3.53,0,7.08.57,10.63,1.7,3.55,1.13,6.8,3.08,9.74,5.86,2.94,2.77,5.3,6.58,7.09,11.41,1.79,4.83,2.68,10.92,2.68,18.28h-53.95v-8.38h44.94l-2.96,3.88c-.21-5.83-1.15-10.52-2.84-14.06-1.69-3.53-3.87-6.09-6.57-7.68-2.69-1.58-5.68-2.37-8.97-2.37-3.91,0-7.27,1.02-10.11,3.05-2.84,2.03-5.02,5-6.54,8.91-1.52,3.91-2.28,8.67-2.28,14.3,0,8.3,1.7,14.71,5.09,19.24,3.39,4.52,8.21,6.78,14.46,6.78,4.48,0,8.25-1.13,11.31-3.39,3.06-2.26,5.31-5.53,6.75-9.8l10.17,3.45c-1.6,3.86-3.74,7.16-6.41,9.9-2.67,2.73-5.85,4.83-9.53,6.29-3.68,1.46-7.78,2.19-12.3,2.19Z" style="fill:#fff;"></path><path d="M442.16,186.22c-6.25,0-11.65-1.42-16.21-4.25-4.56-2.84-8.08-6.85-10.54-12.05-2.47-5.2-3.7-11.35-3.7-18.46s1.23-13.26,3.7-18.46c2.47-5.2,5.98-9.22,10.54-12.05,4.56-2.84,9.97-4.25,16.21-4.25,4.77,0,9.03.87,12.79,2.62,3.76,1.75,6.95,4.25,9.56,7.52,2.61,3.27,4.53,7.2,5.76,11.81l-10.54,2.77c-1.15-5.18-3.22-9.16-6.2-11.93-2.98-2.77-6.77-4.16-11.37-4.16-6.12,0-10.84,2.27-14.15,6.81-3.31,4.54-4.96,10.98-4.96,19.33s1.65,14.84,4.96,19.36c3.31,4.52,8.02,6.78,14.15,6.78,4.56,0,8.32-1.35,11.28-4.04s5.03-6.59,6.23-11.68l10.48,2.96c-.99,3.37-2.34,6.37-4.07,9-1.73,2.63-3.77,4.87-6.13,6.72-2.36,1.85-5.04,3.26-8.01,4.22-2.98.96-6.24,1.45-9.77,1.45Z" style="fill:#fff;"></path><path d="M484.43,109.94c-2.09,0-3.88-.74-5.36-2.22-1.48-1.48-2.22-3.26-2.22-5.36s.74-3.92,2.22-5.38c1.48-1.46,3.26-2.19,5.36-2.19s3.92.73,5.38,2.19c1.46,1.46,2.19,3.26,2.19,5.38s-.73,3.88-2.19,5.36c-1.46,1.48-3.25,2.22-5.38,2.22ZM479.25,184.74v-66.58h10.36v66.58h-10.36Z" style="fill:#fff;"></path><path d="M499.83,208.78v-90.63h9.74v13.87l-.31-.99c1.81-4.85,4.81-8.46,9-10.82,4.19-2.36,8.65-3.54,13.38-3.54,5.42,0,10.19,1.42,14.3,4.25,4.11,2.84,7.32,6.86,9.62,12.08,2.3,5.22,3.45,11.39,3.45,18.5s-1.16,13.27-3.48,18.46c-2.32,5.2-5.54,9.21-9.65,12.02-4.11,2.81-8.86,4.22-14.24,4.22-4.36,0-8.67-1.09-12.95-3.27-4.28-2.18-7.5-5.86-9.68-11.04l.92-.49v37.36h-10.11ZM528.81,177.58c5.51,0,10.03-2.27,13.56-6.81,3.53-4.54,5.3-11.05,5.3-19.51s-1.71-14.6-5.12-19.14c-3.41-4.54-7.95-6.81-13.62-6.81-3.45,0-6.63.9-9.53,2.71-2.9,1.81-5.21,4.62-6.94,8.45-1.73,3.82-2.59,8.75-2.59,14.8,0,8.92,1.85,15.54,5.55,19.85s8.16,6.47,13.38,6.47Z" style="fill:#fff;"></path><path d="M567.37,184.74v-92.48h10.36v41.55l-1.05-2.71c1.73-4.15,4.51-7.59,8.35-10.33,3.84-2.73,8.54-4.1,14.09-4.1,4.69,0,8.72,1.05,12.11,3.14s6.01,5.09,7.86,8.97c1.85,3.88,2.77,8.56,2.77,14.03v41.92h-10.36v-41.12c0-5.63-1.06-10.09-3.17-13.38-2.12-3.29-5.87-4.93-11.25-4.93-5.75,0-10.42,2.04-14,6.13-3.58,4.09-5.36,10.24-5.36,18.46v34.83h-10.36Z" style="fill:#fff;"></path><path d="M633.56,208.78v-8.63h10.11c.74,0,1.32-.24,1.73-.71.41-.47.8-1.22,1.17-2.25l4.81-13.75-1.05,4.75-26.76-70.04h11.59l21.21,61.34-2.28-.55,21.15-60.79h11.47l-31.75,83.17c-.86,2.26-2.32,4.07-4.38,5.43-2.06,1.36-4.19,2.03-6.41,2.03h-10.6Z" style="fill:#fff;"></path><path d="M692.91,184.74v-66.58h9.74v14.12l-.37-1.6c1.97-4.6,4.94-8.09,8.91-10.45,3.97-2.36,7.98-3.54,12.05-3.54,1.19,0,2.35.1,3.48.31,1.13.21,2.19.55,3.18,1.05l-1.36,9.74c-2.26-.7-4.5-1.05-6.72-1.05-1.4,0-3.13.28-5.21.83-2.08.56-4.13,1.66-6.17,3.33-2.04,1.66-3.74,4.14-5.12,7.43-1.38,3.29-2.07,7.67-2.07,13.13v33.29h-10.36Z" style="fill:#fff;"></path><path d="M737.52,186.22c-2.63,0-4.85-.9-6.66-2.71-1.81-1.81-2.71-4.03-2.71-6.66s.9-4.85,2.71-6.66c1.81-1.81,4.03-2.71,6.66-2.71s4.85.9,6.66,2.71,2.71,4.03,2.71,6.66-.9,4.85-2.71,6.66c-1.81,1.81-4.03,2.71-6.66,2.71Z" style="fill:#948bf4;"></path><path d="M776.43,186.22c-4.44,0-8.29-.85-11.56-2.56s-5.79-4.04-7.55-7c-1.77-2.96-2.65-6.31-2.65-10.05,0-3.99,1.17-7.67,3.51-11.04s5.97-6.07,10.88-8.11c4.91-2.04,11.21-3.05,18.9-3.05h11.1l-1.11,1.11v-3.64c0-5.34-1.07-9.44-3.21-12.3-2.14-2.86-5.71-4.28-10.73-4.28-4.73,0-8.36,1.22-10.91,3.67-2.55,2.45-3.91,5.72-4.07,9.83l-11.65-2.65c.37-3.58,1.74-6.83,4.1-9.77,2.36-2.94,5.53-5.29,9.49-7.06,3.97-1.77,8.56-2.65,13.78-2.65s9.77,1.02,13.16,3.05c3.39,2.03,5.89,4.96,7.49,8.79,1.6,3.82,2.4,8.43,2.4,13.81v30.39c0,1.36.19,2.26.59,2.71.39.45,1.22.68,2.5.68h3.76v8.63h-6.6c-2.8,0-5.14-.87-7.03-2.62-1.89-1.75-2.84-3.96-2.84-6.63v-4.69h1.54c-.66,1.73-1.6,3.48-2.84,5.27-1.23,1.79-2.8,3.45-4.69,4.99-1.89,1.54-4.14,2.78-6.75,3.73-2.61.95-5.62,1.42-9.03,1.42ZM778.77,177.58c3.41,0,6.58-.84,9.49-2.53,2.92-1.68,5.27-4.33,7.06-7.92s2.68-8.27,2.68-14.03v-.55h-10.42c-5.47,0-9.77.72-12.92,2.16s-5.38,3.22-6.69,5.33c-1.32,2.12-1.97,4.22-1.97,6.32s.47,3.99,1.42,5.67c.94,1.69,2.36,3.03,4.25,4.04,1.89,1.01,4.25,1.51,7.09,1.51Z" style="fill:#fff;"></path><path d="M826.54,110.27c-2.09,0-3.88-.74-5.36-2.22-1.48-1.48-2.22-3.26-2.22-5.36s.74-3.92,2.22-5.38c1.48-1.46,3.26-2.19,5.36-2.19s3.92.73,5.38,2.19c1.46,1.46,2.19,3.26,2.19,5.38s-.73,3.88-2.19,5.36c-1.46,1.48-3.25,2.22-5.38,2.22ZM821.36,185.07v-66.58h10.36v66.58h-10.36Z" style="fill:#fff;"></path></g></svg> 