<svg width="274" height="64" viewBox="0 0 274 64" fill="none" xmlns="http://www.w3.org/2000/svg">
<path d="M70.0592 21.0986H68.9436L62.7656 40.3271H57.0344L65.1859 16.032H73.9735L82.0597 40.3271H76.3286L70.0559 21.0986H70.0592ZM62.9906 30.4H75.9795V35.4667H62.9906V30.4Z" fill="#2633A0"/>
<path d="M89.5099 16.032V35.2604H99.2206V40.3271H83.9712V16.032H89.5099Z" fill="#2633A0"/>
<path d="M107.085 16.032V35.2604H116.796V40.3271H101.546V16.032H107.085Z" fill="#2633A0"/>
<path d="M128.036 16.032H144.754V21.0986H133.578V25.6462H141.919V30.3644H133.578V40.3235H128.04V16.032H128.036Z" fill="#719CC9"/>
<path d="M156.885 40.569C155.293 40.569 153.805 40.2703 152.426 39.6658C151.046 39.0649 149.829 38.2152 148.779 37.1165C147.728 36.0178 146.906 34.7094 146.313 33.1947C145.719 31.6801 145.422 30.009 145.422 28.1814C145.422 26.3538 145.719 24.6827 146.313 23.1645C146.906 21.6498 147.728 20.3414 148.779 19.2427C149.829 18.1441 151.046 17.2943 152.426 16.6934C153.805 16.0925 155.293 15.7903 156.885 15.7903C158.476 15.7903 159.967 16.0925 161.357 16.6934C162.746 17.2943 163.963 18.1441 165.003 19.2427C166.044 20.3414 166.859 21.6498 167.456 23.1645C168.05 24.6792 168.347 26.3503 168.347 28.1814C168.347 30.0125 168.05 31.6801 167.456 33.1947C166.863 34.7094 166.041 36.0178 164.99 37.1165C163.94 38.2152 162.723 39.0649 161.344 39.6658C159.964 40.2667 158.476 40.569 156.885 40.569ZM156.885 35.3992C158.052 35.3992 159.07 35.0863 159.941 34.4605C160.812 33.8347 161.49 32.9814 161.98 31.8934C162.469 30.8054 162.714 29.5681 162.714 28.1814C162.714 26.7947 162.469 25.5254 161.98 24.4516C161.49 23.3743 160.812 22.5245 159.941 21.9023C159.07 21.2765 158.052 20.9672 156.885 20.9672C155.717 20.9672 154.666 21.2801 153.796 21.9023C152.925 22.5245 152.253 23.3778 151.773 24.4516C151.297 25.5289 151.056 26.7734 151.056 28.1814C151.056 29.5894 151.294 30.8089 151.773 31.8934C152.249 32.9814 152.925 33.8383 153.796 34.4605C154.666 35.0863 155.694 35.3992 156.885 35.3992Z" fill="#719CC9"/>
<path d="M181.209 16.032C183.055 16.032 184.588 16.3982 185.811 17.1235C187.031 17.8524 187.944 18.8195 188.548 20.0213C189.151 21.2231 189.455 22.5315 189.455 23.9431C189.455 24.9138 189.292 25.8738 188.962 26.8231C188.633 27.7724 188.134 28.6293 187.465 29.3902C186.796 30.1547 185.942 30.7626 184.901 31.2106C183.861 31.6586 182.631 31.8862 181.209 31.8862H176.495V40.32H170.956V16.032H181.209ZM183.818 23.9431C183.818 23.0649 183.573 22.3715 183.087 21.8595C182.598 21.3511 181.854 21.0951 180.86 21.0951H176.498V26.8231H180.86C181.518 26.8231 182.063 26.7129 182.5 26.4924C182.934 26.272 183.264 25.9449 183.489 25.504C183.71 25.0631 183.825 24.544 183.825 23.9431H183.818ZM184.011 29.8098L189.869 40.3271H183.756L178.217 29.8098H184.014H184.011Z" fill="#719CC9"/>
<path d="M212.03 40.569C210.439 40.569 208.951 40.2703 207.575 39.6658C206.195 39.0649 204.978 38.2152 203.928 37.1165C202.877 36.0178 202.055 34.7094 201.458 33.1947C200.865 31.6801 200.568 30.009 200.568 28.1814C200.568 26.3538 200.865 24.6827 201.458 23.1645C202.052 21.6498 202.874 20.3414 203.928 19.2427C204.978 18.1441 206.195 17.2943 207.575 16.6934C208.954 16.0925 210.442 15.7903 212.03 15.7903C213.619 15.7903 215.113 16.0925 216.502 16.6934C217.892 17.2943 219.109 18.1441 220.149 19.2427C221.19 20.3414 222.005 21.6498 222.602 23.1645C223.196 24.6792 223.493 26.3503 223.493 28.1814C223.493 30.0125 223.196 31.6801 222.602 33.1947C222.008 34.7094 221.186 36.0178 220.136 37.1165C219.086 38.2152 217.869 39.0649 216.489 39.6658C215.11 40.2667 213.622 40.569 212.03 40.569ZM212.03 35.3992C213.198 35.3992 214.216 35.0863 215.087 34.4605C215.958 33.8347 216.636 32.9814 217.125 31.8934C217.615 30.8054 217.856 29.5681 217.856 28.1814C217.856 26.7947 217.611 25.5254 217.125 24.4516C216.636 23.3743 215.958 22.5245 215.087 21.9023C214.216 21.2801 213.198 20.9672 212.03 20.9672C210.863 20.9672 209.812 21.2801 208.941 21.9023C208.07 22.5281 207.398 23.3778 206.919 24.4516C206.443 25.5289 206.201 26.7734 206.201 28.1814C206.201 29.5894 206.439 30.8089 206.919 31.8934C207.395 32.9814 208.07 33.8383 208.941 34.4605C209.812 35.0863 210.84 35.3992 212.03 35.3992Z" fill="#00ABA5"/>
<path d="M245.524 16.032V40.3271H239.952L231.641 25.6106V40.3271H226.102V16.032H231.674L239.985 30.8515V16.032H245.524Z" fill="#00ABA5"/>
<path d="M265.741 21.0986H254.566V25.6462H262.906V30.3644H254.566V35.2569H265.741V40.3235H249.024V16.032H265.741V21.0986Z" fill="#00ABA5"/>
<path d="M59.9016 47.0471V56.7467H64.4944V57.5396H59.06V47.0436H59.8984L59.9016 47.0471Z" fill="black"/>
<path d="M68.8294 57.6463C68.1868 57.6463 67.6225 57.4792 67.13 57.1449C66.6407 56.8107 66.2558 56.3485 65.9818 55.7583C65.7078 55.1681 65.5675 54.4889 65.5675 53.7209C65.5675 52.9921 65.7078 52.3414 65.9883 51.7725C66.2688 51.2036 66.6505 50.7556 67.1365 50.4321C67.6225 50.1085 68.1771 49.9449 68.8001 49.9449C69.4231 49.9449 69.9613 50.0907 70.4441 50.3858C70.9268 50.6809 71.302 51.0863 71.5727 51.6018C71.8434 52.1174 71.9739 52.7041 71.9641 53.3654C71.9641 53.4649 71.9641 53.5716 71.9576 53.6889C71.9543 53.8027 71.9446 53.9272 71.938 54.0552H66.4222C66.4319 54.6027 66.5396 55.0898 66.7516 55.5094C66.9636 55.9289 67.2442 56.2561 67.5964 56.4907C67.9487 56.7254 68.3499 56.8427 68.8001 56.8427C69.3677 56.8427 69.8569 56.7147 70.2647 56.4587C70.6724 56.2027 70.9693 55.8401 71.1519 55.3707L71.8271 55.6694C71.5694 56.3094 71.1813 56.8001 70.6594 57.1378C70.1375 57.4792 69.5275 57.6463 68.8294 57.6463ZM71.1128 53.2978C71.1226 52.8001 71.0312 52.3592 70.8388 51.9787C70.6463 51.5983 70.3723 51.2996 70.02 51.0792C69.6678 50.8587 69.2535 50.7485 68.774 50.7485C68.3532 50.7485 67.9716 50.8587 67.6323 51.0792C67.2931 51.2996 67.0158 51.6018 66.8005 51.9858C66.5852 52.3698 66.458 52.8072 66.4222 53.2978H71.1128Z" fill="black"/>
<path d="M78.1552 57.5431L78.0998 55.9537C77.9073 56.4942 77.6072 56.9102 77.1995 57.2053C76.7918 57.5004 76.2764 57.6462 75.6534 57.6462C75.1575 57.6462 74.7368 57.5644 74.3877 57.3973C74.0387 57.2337 73.7712 56.9955 73.5821 56.6862C73.3929 56.3768 73.3015 56.0071 73.3015 55.5768C73.3015 54.9475 73.5168 54.4355 73.9474 54.0408C74.378 53.6462 75.0206 53.4044 75.8719 53.3155L78.0998 53.0453V52.4159C78.0998 51.8968 77.9432 51.4879 77.6236 51.1928C77.3071 50.8977 76.8701 50.752 76.309 50.752C75.748 50.752 75.3337 50.8871 74.9814 51.1573C74.6291 51.4275 74.391 51.8115 74.2736 52.3128L73.5592 52.0426C73.7321 51.3742 74.0583 50.8551 74.5345 50.4888C75.0108 50.1226 75.6077 49.9413 76.3221 49.9413C77.1277 49.9413 77.7573 50.1617 78.2074 50.6026C78.6576 51.0435 78.8826 51.6479 78.8826 52.4159V57.5431H78.152H78.1552ZM78.0998 53.7813L75.8589 54.0657C75.2717 54.1368 74.8379 54.2933 74.5606 54.5386C74.2801 54.7839 74.1398 55.1146 74.1398 55.5342C74.1398 55.9537 74.2736 56.2844 74.5443 56.5226C74.8151 56.7644 75.2032 56.8817 75.7056 56.8817C76.2372 56.8817 76.6809 56.7644 77.0331 56.5297C77.3854 56.2951 77.6529 55.9715 77.8323 55.5555C78.0117 55.1395 78.0998 54.6737 78.0998 54.1546V53.7813Z" fill="black"/>
<path d="M80.9768 50.0444H81.7042L81.7466 51.3778C81.9032 51.0684 82.1119 50.7982 82.3794 50.5671C82.6436 50.336 82.947 50.1724 83.2862 50.0729C83.6254 49.9733 83.9973 49.9627 84.4018 50.0444V50.8978C84.0071 50.8089 83.6483 50.8089 83.3286 50.9049C83.0089 51.0009 82.7317 51.168 82.4968 51.4062C82.262 51.6444 82.0826 51.9467 81.9521 52.3058C81.8249 52.6649 81.7596 53.0773 81.7596 53.536V57.5395H80.9768V50.0444Z" fill="black"/>
<path d="M85.8566 50.0444H86.584L86.6264 51.4097C86.8189 50.9511 87.1059 50.592 87.4876 50.3289C87.8692 50.0693 88.3324 49.9377 88.8836 49.9377C89.3958 49.9377 89.8524 50.0586 90.2536 50.304C90.6516 50.5493 90.9647 50.912 91.1898 51.3991C91.4149 51.8826 91.5258 52.5013 91.5258 53.2515V57.5395H90.7429V53.3404C90.7429 52.4906 90.5701 51.84 90.221 51.392C89.872 50.9404 89.386 50.7164 88.763 50.7164C88.1041 50.7164 87.5854 50.9546 87.207 51.4346C86.8319 51.9146 86.6427 52.6293 86.6427 53.5786V57.536H85.8599V50.0409L85.8566 50.0444Z" fill="black"/>
<path d="M94.194 48.3662C94.0212 48.3662 93.8776 48.3057 93.7667 48.1849C93.6558 48.064 93.6004 47.9146 93.6004 47.7333C93.6004 47.5449 93.6558 47.3884 93.7667 47.2675C93.8776 47.1466 94.0179 47.0862 94.194 47.0862C94.3506 47.0862 94.4843 47.1466 94.5985 47.2675C94.7127 47.3884 94.7714 47.5413 94.7714 47.7333C94.7714 47.9253 94.7127 48.064 94.5985 48.1849C94.4843 48.3057 94.3473 48.3662 94.194 48.3662ZM93.7961 50.0444H94.5659V57.5395H93.7961V50.0444Z" fill="black"/>
<path d="M96.9601 50.0444H97.6875L97.7299 51.4097C97.9224 50.9511 98.2094 50.592 98.5911 50.3289C98.9727 50.0693 99.4359 49.9377 99.9872 49.9377C100.499 49.9377 100.956 50.0586 101.357 50.304C101.755 50.5493 102.068 50.912 102.293 51.3991C102.518 51.8826 102.629 52.5013 102.629 53.2515V57.5395H101.846V53.3404C101.846 52.4906 101.674 51.84 101.325 51.392C100.976 50.9404 100.489 50.7164 99.8665 50.7164C99.2076 50.7164 98.6889 50.9546 98.3105 51.4346C97.9354 51.9146 97.7462 52.6293 97.7462 53.5786V57.536H96.9634V50.0409L96.9601 50.0444Z" fill="black"/>
<path d="M110.096 50.0445H110.823V56.0427C110.823 56.9921 110.634 57.8027 110.259 58.4712C109.884 59.1396 109.339 59.6516 108.628 60.0072C107.917 60.3627 107.049 60.5405 106.022 60.5405L105.898 59.7476C107.245 59.7369 108.272 59.4169 108.98 58.7876C109.685 58.1583 110.04 57.2445 110.04 56.0427V55.7725L110.109 55.8009C109.916 56.3023 109.6 56.7289 109.16 57.0916C108.719 57.4507 108.142 57.6356 107.428 57.6463C106.785 57.6463 106.227 57.4898 105.757 57.1734C105.285 56.8605 104.919 56.4125 104.658 55.8329C104.397 55.2534 104.267 54.5743 104.267 53.7956C104.267 53.0169 104.397 52.3378 104.658 51.7654C104.919 51.1894 105.288 50.7449 105.757 50.4249C106.23 50.1049 106.788 49.9449 107.428 49.9449C107.887 49.9449 108.289 50.0232 108.631 50.1832C108.974 50.3432 109.264 50.5565 109.499 50.8196C109.734 51.0827 109.913 51.3778 110.044 51.6978L110.099 50.0481L110.096 50.0445ZM105.102 53.7921C105.102 54.7307 105.324 55.4774 105.771 56.0249C106.214 56.5725 106.824 56.8498 107.594 56.8498C108.06 56.8498 108.481 56.7254 108.853 56.4765C109.225 56.2276 109.515 55.8721 109.727 55.4134C109.939 54.9547 110.044 54.4143 110.044 53.7956C110.044 53.1769 109.939 52.6223 109.727 52.1672C109.515 51.7121 109.225 51.3601 108.853 51.1112C108.481 50.8623 108.064 50.7378 107.594 50.7378C106.834 50.7378 106.227 51.0152 105.777 51.5698C105.327 52.1245 105.102 52.8676 105.102 53.7956V53.7921Z" fill="black"/>
<path d="M122.269 51.7831L122.201 51.8115V46.7449H122.984V57.5395H122.256L122.201 55.8898C122.008 56.3804 121.689 56.7929 121.245 57.1342C120.801 57.4755 120.247 57.6426 119.588 57.6426C118.929 57.6426 118.401 57.4862 117.924 57.1698C117.448 56.8569 117.08 56.4089 116.819 55.8293C116.558 55.2498 116.427 54.5706 116.427 53.792C116.427 53.0133 116.558 52.3342 116.819 51.7618C117.08 51.1858 117.448 50.7413 117.924 50.4213C118.401 50.1013 118.955 49.9413 119.588 49.9413C120.286 49.9413 120.857 50.1191 121.307 50.4747C121.757 50.8302 122.077 51.2675 122.269 51.7866V51.7831ZM117.262 53.792C117.262 54.7306 117.484 55.4773 117.931 56.0249C118.375 56.5724 118.978 56.8498 119.741 56.8498C120.217 56.8498 120.642 56.7253 121.013 56.4764C121.385 56.2275 121.676 55.8755 121.888 55.4204C122.1 54.9653 122.204 54.4249 122.204 53.7955C122.204 53.1662 122.1 52.6222 121.888 52.1671C121.676 51.712 121.385 51.36 121.013 51.1111C120.642 50.8622 120.217 50.7378 119.741 50.7378C118.981 50.7378 118.378 51.0115 117.931 51.5627C117.487 52.1102 117.262 52.8569 117.262 53.7955V53.792Z" fill="black"/>
<path d="M127.991 57.6463C127.348 57.6463 126.784 57.4792 126.291 57.1449C125.802 56.8107 125.417 56.3485 125.143 55.7583C124.869 55.1681 124.729 54.4889 124.729 53.7209C124.729 52.9921 124.869 52.3414 125.15 51.7725C125.43 51.2036 125.812 50.7556 126.298 50.4321C126.784 50.1085 127.338 49.9449 127.961 49.9449C128.584 49.9449 129.123 50.0907 129.605 50.3858C130.088 50.6809 130.463 51.0863 130.734 51.6018C131.005 52.1174 131.135 52.7041 131.125 53.3654C131.125 53.4649 131.125 53.5716 131.119 53.6889C131.116 53.8027 131.106 53.9272 131.099 54.0552H125.583C125.593 54.6027 125.701 55.0898 125.913 55.5094C126.125 55.9289 126.405 56.2561 126.758 56.4907C127.11 56.7254 127.511 56.8427 127.961 56.8427C128.529 56.8427 129.018 56.7147 129.426 56.4587C129.834 56.2027 130.13 55.8401 130.313 55.3707L130.988 55.6694C130.731 56.3094 130.342 56.8001 129.821 57.1378C129.299 57.4792 128.689 57.6463 127.991 57.6463ZM130.274 53.2978C130.284 52.8001 130.192 52.3592 130 51.9787C129.808 51.5983 129.534 51.2996 129.181 51.0792C128.829 50.8587 128.415 50.7485 127.935 50.7485C127.514 50.7485 127.133 50.8587 126.794 51.0792C126.454 51.2996 126.177 51.6018 125.962 51.9858C125.746 52.3698 125.619 52.8072 125.583 53.2978H130.274Z" fill="black"/>
<path d="M133.19 55.3528C133.255 55.6835 133.363 55.9573 133.513 56.1777C133.663 56.3982 133.869 56.5617 134.126 56.6719C134.384 56.7822 134.691 56.8355 135.049 56.8355C135.617 56.8355 136.048 56.7111 136.335 56.4693C136.625 56.224 136.768 55.9182 136.768 55.5484C136.768 55.2391 136.684 54.9937 136.514 54.8124C136.344 54.6311 136.123 54.4888 135.849 54.3786C135.575 54.2684 135.274 54.1724 134.955 54.0942C134.736 54.0337 134.488 53.9662 134.211 53.8844C133.937 53.8062 133.673 53.6924 133.422 53.5466C133.171 53.4008 132.962 53.2124 132.802 52.9777C132.642 52.7431 132.561 52.4302 132.561 52.0426C132.561 51.6231 132.665 51.2568 132.877 50.9404C133.089 50.6239 133.379 50.3822 133.751 50.2044C134.123 50.0302 134.547 49.9413 135.023 49.9413C135.591 49.9413 136.096 50.0764 136.537 50.3466C136.977 50.6168 137.281 51.0471 137.444 51.6373L136.713 51.9075C136.631 51.5875 136.494 51.3457 136.308 51.1822C136.119 51.0186 135.911 50.9048 135.682 50.8444C135.454 50.7839 135.229 50.7555 135.007 50.7555C134.521 50.7555 134.13 50.8622 133.839 51.0791C133.546 51.2959 133.399 51.6017 133.399 51.9999C133.399 52.2311 133.448 52.4195 133.549 52.5688C133.65 52.7182 133.784 52.8391 133.953 52.9279C134.123 53.0168 134.319 53.0915 134.537 53.152C134.756 53.2124 134.987 53.2728 135.226 53.3333C135.493 53.4044 135.764 53.4897 136.038 53.5893C136.312 53.6888 136.569 53.8204 136.808 53.9804C137.046 54.1404 137.238 54.3466 137.385 54.5955C137.532 54.8444 137.603 55.1608 137.603 55.5413C137.603 55.9715 137.496 56.3448 137.281 56.6648C137.065 56.9848 136.768 57.2302 136.387 57.4008C136.005 57.5715 135.558 57.6568 135.046 57.6568C134.348 57.6568 133.777 57.4897 133.334 57.1555C132.89 56.8213 132.593 56.3128 132.446 55.6337L133.19 55.3635V55.3528Z" fill="black"/>
<path d="M139.942 48.3662C139.766 48.3662 139.626 48.3057 139.515 48.1849C139.404 48.064 139.349 47.9146 139.349 47.7333C139.349 47.5449 139.404 47.3884 139.515 47.2675C139.626 47.1466 139.766 47.0862 139.942 47.0862C140.099 47.0862 140.233 47.1466 140.347 47.2675C140.461 47.3884 140.52 47.5413 140.52 47.7333C140.52 47.9253 140.461 48.064 140.347 48.1849C140.233 48.3057 140.096 48.3662 139.942 48.3662ZM139.544 50.0444H140.314V57.5395H139.544V50.0444Z" fill="black"/>
<path d="M148.1 50.0445H148.828V56.0427C148.828 56.9921 148.638 57.8027 148.263 58.4712C147.888 59.1396 147.344 59.6516 146.632 60.0072C145.921 60.3627 145.054 60.5405 144.026 60.5405L143.902 59.7476C145.249 59.7369 146.277 59.4169 146.985 58.7876C147.689 58.1583 148.045 57.2445 148.045 56.0427V55.7725L148.113 55.8009C147.921 56.3023 147.604 56.7289 147.164 57.0916C146.724 57.4507 146.146 57.6356 145.432 57.6463C144.789 57.6463 144.232 57.4898 143.762 57.1734C143.289 56.8605 142.924 56.4125 142.663 55.8329C142.402 55.2534 142.271 54.5743 142.271 53.7956C142.271 53.0169 142.402 52.3378 142.663 51.7654C142.924 51.1894 143.292 50.7449 143.762 50.4249C144.232 50.1049 144.793 49.9449 145.432 49.9449C145.892 49.9449 146.293 50.0232 146.636 50.1832C146.978 50.3432 147.268 50.5565 147.503 50.8196C147.738 51.0827 147.918 51.3778 148.048 51.6978L148.104 50.0481L148.1 50.0445ZM143.106 53.7921C143.106 54.7307 143.328 55.4774 143.775 56.0249C144.219 56.5725 144.829 56.8498 145.598 56.8498C146.065 56.8498 146.486 56.7254 146.857 56.4765C147.229 56.2276 147.52 55.8721 147.732 55.4134C147.944 54.9547 148.048 54.4143 148.048 53.7956C148.048 53.1769 147.944 52.6223 147.732 52.1672C147.52 51.7121 147.229 51.3601 146.857 51.1112C146.486 50.8623 146.068 50.7378 145.598 50.7378C144.838 50.7378 144.232 51.0152 143.782 51.5698C143.331 52.1245 143.106 52.8676 143.106 53.7956V53.7921Z" fill="black"/>
<path d="M151.016 50.0444H151.747L151.789 51.4097C151.982 50.9511 152.269 50.592 152.651 50.3289C153.032 50.0693 153.495 49.9377 154.047 49.9377C154.559 49.9377 155.015 50.0586 155.417 50.304C155.815 50.5493 156.128 50.912 156.353 51.3991C156.578 51.8862 156.689 52.5013 156.689 53.2515V57.5395H155.906V53.3404C155.906 52.4906 155.73 51.84 155.384 51.392C155.035 50.9404 154.549 50.7164 153.926 50.7164C153.267 50.7164 152.748 50.9546 152.37 51.4346C151.992 51.9146 151.806 52.6293 151.806 53.5786V57.536H151.023V50.0409L151.016 50.0444Z" fill="black"/>
<path d="M161.578 57.6463C160.936 57.6463 160.372 57.4792 159.879 57.1449C159.39 56.8107 159.005 56.3485 158.731 55.7583C158.457 55.1681 158.32 54.4889 158.32 53.7209C158.32 52.9921 158.46 52.3414 158.741 51.7725C159.021 51.2036 159.403 50.7556 159.889 50.4321C160.375 50.1085 160.929 49.9449 161.552 49.9449C162.175 49.9449 162.714 50.0907 163.196 50.3858C163.679 50.6809 164.054 51.0863 164.325 51.6018C164.596 52.1174 164.726 52.7041 164.716 53.3654C164.716 53.4649 164.716 53.5716 164.71 53.6889C164.707 53.8027 164.697 53.9272 164.69 54.0552H159.174C159.184 54.6027 159.295 55.0898 159.504 55.5094C159.716 55.9289 159.996 56.2561 160.349 56.4907C160.701 56.7254 161.102 56.8427 161.552 56.8427C162.12 56.8427 162.609 56.7147 163.017 56.4587C163.425 56.2027 163.722 55.8401 163.904 55.3707L164.579 55.6694C164.322 56.3094 163.934 56.8001 163.412 57.1378C162.89 57.4792 162.28 57.6463 161.582 57.6463H161.578ZM163.862 53.2978C163.872 52.8001 163.78 52.3592 163.588 51.9787C163.395 51.5983 163.121 51.2996 162.769 51.0792C162.417 50.8587 162.003 50.7485 161.523 50.7485C161.102 50.7485 160.721 50.8587 160.381 51.0792C160.042 51.2996 159.765 51.6018 159.55 51.9858C159.334 52.3698 159.207 52.8072 159.171 53.2978H163.862Z" fill="black"/>
<path d="M171.883 51.7831L171.814 51.8115V46.7449H172.597V57.5395H171.867L171.811 55.8898C171.619 56.3804 171.299 56.7929 170.855 57.1342C170.412 57.4755 169.857 57.6426 169.198 57.6426C168.539 57.6426 168.011 57.4862 167.535 57.1698C167.058 56.8569 166.69 56.4089 166.429 55.8293C166.168 55.2498 166.037 54.5706 166.037 53.792C166.037 53.0133 166.168 52.3342 166.429 51.7618C166.69 51.1858 167.058 50.7413 167.535 50.4213C168.011 50.1013 168.565 49.9413 169.198 49.9413C169.893 49.9413 170.467 50.1191 170.917 50.4747C171.367 50.8302 171.687 51.2675 171.88 51.7866L171.883 51.7831ZM166.876 53.792C166.876 54.7306 167.098 55.4773 167.541 56.0249C167.985 56.5724 168.588 56.8498 169.348 56.8498C169.825 56.8498 170.249 56.7253 170.62 56.4764C170.992 56.2275 171.283 55.8755 171.495 55.4204C171.707 54.9653 171.811 54.4249 171.811 53.7955C171.811 53.1662 171.707 52.6222 171.495 52.1671C171.283 51.712 170.992 51.36 170.62 51.1111C170.249 50.8622 169.825 50.7378 169.348 50.7378C168.588 50.7378 167.985 51.0115 167.541 51.5627C167.098 52.1102 166.876 52.8569 166.876 53.7955V53.792Z" fill="black"/>
<path d="M179.062 49.1164C179.062 48.5867 179.141 48.1351 179.297 47.7582C179.454 47.3849 179.708 47.1076 180.06 46.9333C180.413 46.7591 180.882 46.6951 181.47 46.7449V47.5236C180.856 47.4738 180.432 47.5876 180.197 47.8613C179.963 48.1351 179.848 48.5547 179.848 49.1129V50.0444H181.512V50.8551H179.848V57.5431H179.066V50.8551H178.018V50.0444H179.066V49.1129L179.062 49.1164Z" fill="black"/>
<path d="M185.886 57.6462C185.244 57.6462 184.669 57.4897 184.161 57.1804C183.652 56.8711 183.254 56.4266 182.963 55.8542C182.673 55.2782 182.53 54.5955 182.53 53.8062C182.53 53.0169 182.676 52.3164 182.97 51.7369C183.264 51.1573 183.665 50.7129 184.174 50.4035C184.683 50.0942 185.263 49.9377 185.912 49.9377C186.561 49.9377 187.129 50.0942 187.638 50.4035C188.147 50.7129 188.548 51.1573 188.841 51.7297C189.135 52.3057 189.282 52.9884 189.282 53.7777C189.282 54.5671 189.132 55.2675 188.835 55.8471C188.538 56.4266 188.134 56.8711 187.625 57.1804C187.116 57.4897 186.535 57.6462 185.886 57.6462ZM185.886 56.8355C186.327 56.8355 186.741 56.7289 187.132 56.512C187.52 56.2986 187.837 55.9644 188.081 55.5164C188.326 55.0649 188.447 54.4924 188.447 53.792C188.447 53.0915 188.326 52.5155 188.081 52.0675C187.837 51.616 187.524 51.2853 187.139 51.072C186.754 50.8586 186.34 50.7484 185.899 50.7484C185.459 50.7484 185.048 50.8551 184.66 51.072C184.275 51.2889 183.962 51.6195 183.724 52.0675C183.485 52.5155 183.365 53.0915 183.365 53.792C183.365 54.4924 183.485 55.0649 183.724 55.5164C183.962 55.9644 184.272 56.2986 184.653 56.512C185.035 56.7289 185.443 56.8355 185.883 56.8355H185.886Z" fill="black"/>
<path d="M191.043 50.0444H191.771L191.813 51.3778C191.97 51.0684 192.178 50.7982 192.446 50.5671C192.713 50.336 193.013 50.1724 193.353 50.0729C193.692 49.9733 194.064 49.9627 194.468 50.0444V50.8978C194.074 50.8089 193.718 50.8089 193.395 50.9049C193.075 51.0009 192.798 51.168 192.563 51.4062C192.328 51.6444 192.149 51.9467 192.019 52.3058C191.891 52.6649 191.826 53.0773 191.826 53.536V57.5395H191.043V50.0444Z" fill="black"/>
<path d="M202.597 57.6463C201.954 57.6463 201.387 57.4792 200.897 57.1449C200.405 56.8107 200.023 56.3485 199.749 55.7583C199.475 55.1681 199.335 54.4889 199.335 53.7209C199.335 52.9921 199.475 52.3414 199.756 51.7725C200.036 51.2036 200.418 50.7556 200.904 50.4321C201.39 50.1085 201.945 49.9449 202.568 49.9449C203.191 49.9449 203.729 50.0907 204.212 50.3858C204.694 50.6809 205.069 51.0863 205.34 51.6018C205.611 52.1174 205.741 52.7041 205.732 53.3654C205.732 53.4649 205.732 53.5716 205.725 53.6889C205.719 53.8027 205.712 53.9272 205.706 54.0552H200.19C200.199 54.6027 200.31 55.0898 200.519 55.5094C200.731 55.9289 201.012 56.2561 201.364 56.4907C201.716 56.7254 202.117 56.8427 202.568 56.8427C203.135 56.8427 203.624 56.7147 204.032 56.4587C204.44 56.2027 204.737 55.8401 204.919 55.3707L205.595 55.6694C205.337 56.3094 204.949 56.8001 204.427 57.1378C203.905 57.4792 203.295 57.6463 202.597 57.6463ZM204.88 53.2978C204.89 52.8001 204.799 52.3592 204.606 51.9787C204.414 51.5983 204.14 51.2996 203.787 51.0792C203.435 50.8587 203.018 50.7485 202.541 50.7485C202.121 50.7485 201.739 50.8587 201.4 51.0792C201.061 51.2996 200.783 51.6018 200.568 51.9858C200.353 52.3698 200.225 52.8072 200.19 53.2978H204.88Z" fill="black"/>
<path d="M207.467 50.0444L209.832 56.5369L212.197 50.0444H213.022L210.217 57.5395H209.418L206.625 50.0444H207.464H207.467Z" fill="black"/>
<path d="M217.165 57.6463C216.522 57.6463 215.954 57.4792 215.465 57.1449C214.976 56.8107 214.591 56.3485 214.317 55.7583C214.043 55.1681 213.906 54.4889 213.906 53.7209C213.906 52.9921 214.046 52.3414 214.327 51.7725C214.607 51.2036 214.989 50.7556 215.475 50.4321C215.961 50.1085 216.515 49.9449 217.138 49.9449C217.762 49.9449 218.3 50.0907 218.782 50.3858C219.265 50.6809 219.64 51.0863 219.911 51.6018C220.182 52.1174 220.312 52.7041 220.303 53.3654C220.303 53.4649 220.303 53.5716 220.296 53.6889C220.293 53.8027 220.283 53.9272 220.276 54.0552H214.761C214.77 54.6027 214.881 55.0898 215.09 55.5094C215.302 55.9289 215.583 56.2561 215.935 56.4907C216.287 56.7254 216.688 56.8427 217.138 56.8427C217.706 56.8427 218.195 56.7147 218.603 56.4587C219.011 56.2027 219.308 55.8401 219.49 55.3707L220.166 55.6694C219.908 56.3094 219.52 56.8001 218.998 57.1378C218.476 57.4792 217.866 57.6463 217.168 57.6463H217.165ZM219.448 53.2978C219.458 52.8001 219.366 52.3592 219.174 51.9787C218.981 51.5983 218.707 51.2996 218.355 51.0792C218.003 50.8587 217.585 50.7485 217.109 50.7485C216.688 50.7485 216.307 50.8587 215.967 51.0792C215.628 51.2996 215.351 51.6018 215.136 51.9858C214.92 52.3698 214.793 52.8072 214.757 53.2978H219.448Z" fill="black"/>
<path d="M222.061 50.0444H222.791L222.834 51.3778C222.99 51.0684 223.199 50.7982 223.467 50.5671C223.731 50.336 224.034 50.1724 224.373 50.0729C224.713 49.9733 225.084 49.9627 225.486 50.0444V50.8978C225.091 50.8089 224.735 50.8089 224.413 50.9049C224.093 51.0009 223.816 51.168 223.581 51.4062C223.346 51.6444 223.166 51.9467 223.036 52.3058C222.909 52.6649 222.844 53.0773 222.844 53.536V57.5395H222.061V50.0444Z" fill="black"/>
<path d="M231.634 50.0444H232.447L228.581 60.5404H227.811L228.953 57.4684L226.118 50.048H226.973L229.367 56.4658L231.638 50.048L231.634 50.0444Z" fill="black"/>
<path d="M237.672 50.0444H238.4L238.455 51.4097C238.628 50.9688 238.895 50.6133 239.254 50.3466C239.613 50.0764 240.07 49.9413 240.631 49.9413C241.143 49.9413 241.606 50.0871 242.02 50.3751C242.431 50.6666 242.741 51.1039 242.94 51.6942C243.133 51.0933 243.449 50.6524 243.889 50.3679C244.33 50.0835 244.826 49.9413 245.374 49.9413C245.876 49.9413 246.326 50.0622 246.721 50.3075C247.115 50.5528 247.422 50.9191 247.644 51.4097C247.866 51.9004 247.973 52.5155 247.973 53.2551V57.5431H247.19V53.3439C247.19 52.4942 247.021 51.8471 246.682 51.4026C246.342 50.9582 245.866 50.7342 245.25 50.7342C244.633 50.7342 244.114 50.9795 243.743 51.4702C243.371 51.9608 243.185 52.6791 243.185 53.6284V57.5431H242.386V53.3439C242.386 52.4942 242.223 51.8471 241.896 51.4026C241.57 50.9582 241.1 50.7342 240.487 50.7342C239.874 50.7342 239.359 50.9795 238.993 51.4702C238.631 51.9608 238.452 52.6791 238.452 53.6284V57.5431H237.669V50.0479L237.672 50.0444Z" fill="black"/>
<path d="M250.645 48.3662C250.472 48.3662 250.328 48.3057 250.217 48.1849C250.107 48.064 250.051 47.9146 250.051 47.7333C250.051 47.5449 250.107 47.3884 250.217 47.2675C250.328 47.1466 250.469 47.0862 250.645 47.0862C250.801 47.0862 250.935 47.1466 251.049 47.2675C251.163 47.3884 251.222 47.5413 251.222 47.7333C251.222 47.9253 251.163 48.064 251.049 48.1849C250.935 48.3057 250.798 48.3662 250.645 48.3662ZM250.247 50.0444H251.017V57.5395H250.247V50.0444Z" fill="black"/>
<path d="M253.408 50.0444H254.138L254.181 51.4097C254.373 50.9511 254.66 50.592 255.039 50.3289C255.42 50.0693 255.883 49.9377 256.435 49.9377C256.947 49.9377 257.403 50.0586 257.805 50.304C258.206 50.5493 258.516 50.912 258.741 51.3991C258.966 51.8826 259.077 52.5013 259.077 53.2515V57.5395H258.294V53.3404C258.294 52.4906 258.118 51.84 257.772 51.392C257.423 50.9404 256.937 50.7164 256.314 50.7164C255.655 50.7164 255.136 50.9546 254.758 51.4346C254.38 51.9146 254.194 52.6293 254.194 53.5786V57.536H253.411V50.0409L253.408 50.0444Z" fill="black"/>
<path d="M266.56 51.7831L266.491 51.8115V46.7449H267.274V57.5395H266.547L266.491 55.8898C266.299 56.3804 265.979 56.7929 265.535 57.1342C265.092 57.4755 264.537 57.6426 263.878 57.6426C263.219 57.6426 262.691 57.4862 262.215 57.1698C261.738 56.8569 261.37 56.4089 261.109 55.8293C260.848 55.2498 260.718 54.5706 260.718 53.792C260.718 53.0133 260.848 52.3342 261.109 51.7618C261.37 51.1858 261.738 50.7413 262.215 50.4213C262.691 50.1013 263.245 49.9413 263.878 49.9413C264.576 49.9413 265.147 50.1191 265.597 50.4747C266.047 50.8302 266.367 51.2675 266.56 51.7866V51.7831ZM261.553 53.792C261.553 54.7306 261.774 55.4773 262.218 56.0249C262.662 56.5724 263.265 56.8498 264.025 56.8498C264.501 56.8498 264.925 56.7253 265.297 56.4764C265.669 56.2275 265.959 55.8755 266.171 55.4204C266.383 54.9653 266.488 54.4249 266.488 53.7955C266.488 53.1662 266.383 52.6222 266.171 52.1671C265.959 51.712 265.669 51.36 265.297 51.1111C264.925 50.8622 264.501 50.7378 264.025 50.7378C263.265 50.7378 262.662 51.0115 262.218 51.5627C261.771 52.1102 261.553 52.8569 261.553 53.7955V53.792Z" fill="black"/>
<path d="M269.874 57.6035C269.701 57.6035 269.554 57.5396 269.44 57.408C269.326 57.2764 269.267 57.12 269.267 56.928C269.267 56.736 269.326 56.5795 269.44 56.448C269.554 56.3164 269.698 56.2524 269.874 56.2524C270.05 56.2524 270.18 56.3164 270.301 56.448C270.422 56.5795 270.48 56.7396 270.48 56.928C270.48 57.1164 270.422 57.2764 270.301 57.408C270.18 57.5396 270.04 57.6035 269.874 57.6035Z" fill="black"/>
<path d="M24.5589 31.52C26.5454 29.0774 29.0212 29.2338 31.6013 29.9378L31.5948 29.9236C31.7188 30.016 31.8427 30.1085 31.9667 30.2009C33.8227 31.5911 34.7099 33.5503 34.5077 35.9574C34.2696 38.7627 32.7919 40.4338 30.3064 41.3654C28.5286 42.0338 26.2029 40.8711 25.0188 39.4667C23.4074 37.5503 23.2345 35.3671 24.0272 33.0134C24.1968 32.512 24.3795 32.0178 24.5556 31.52H24.5589Z" fill="#2633A0"/>
<path d="M24.8003 47.7404C24.9242 51.4204 20.5891 55.7511 17.2 55.5662C15.3049 55.4631 13.6348 52.6968 14.1404 50.7342C14.8808 47.8577 16.6781 45.8168 18.8995 44.4764C20.0118 43.8044 21.7993 43.9751 23.1302 44.3697C24.4415 44.7573 24.9666 46.24 24.8003 47.7368V47.7404Z" fill="#F88E81"/>
<path d="M51.4207 20.0854C53.4039 19.9965 54.0041 20.8498 54.2814 22.9725C54.4901 24.5582 52.8461 26.304 51.0847 26.3147C47.6988 26.336 44.4043 26.8445 41.1587 27.8898C40.3008 28.1671 39.1331 28.1814 38.9406 27.0009C38.8428 26.3894 39.5441 25.248 40.141 24.9458C43.3703 23.3067 46.6779 21.8382 49.9691 20.3485C50.4095 20.1494 50.9346 20.1636 51.4207 20.0818V20.0854Z" fill="#719CC9"/>
<path d="M42.7244 46.7911C43.9542 48.0391 44.8642 49.4187 44.7957 51.4062C44.7044 54.1405 42.0525 56.0178 39.7431 54.9334C37.3521 53.8098 35.0851 52.5156 33.9532 49.7565C33.6661 49.0596 33.6302 48.2418 33.4802 47.4774C34.8241 48.5689 36.3148 48.7218 37.9327 48.4622C38.8004 48.3236 39.7333 48.3556 40.5944 48.544C42.0003 48.8534 42.7016 48.3698 42.7212 46.7911H42.7244Z" fill="#00ABA5"/>
<path d="M31.3273 56.5724C31.2817 57.4257 31.5133 58.5173 31.1186 59.0684C30.6162 59.7653 29.517 60.4764 28.8222 60.3306C28.1633 60.1955 27.2597 58.9866 27.2206 58.208C27.051 54.752 27.1423 51.2817 27.1749 47.8151C27.1782 47.4097 27.3674 46.9902 27.5239 46.6026C27.9089 45.6426 28.4797 44.9599 29.5626 45.1662C30.613 45.3653 31.1088 46.1226 31.1218 47.2106C31.161 50.1866 31.1512 53.1591 31.161 56.1351C31.2164 56.2808 31.2751 56.4266 31.3306 56.5688L31.3273 56.5724Z" fill="#719CC9"/>
<path d="M34.2696 13.9023C33.6922 11.3778 34.4588 9.3476 36.5072 7.99649C38.0697 6.96183 40.7575 8.47649 40.9141 10.5209C40.9663 11.2143 40.8554 11.9218 40.8195 12.6223C39.8507 13.7138 38.8852 14.8054 37.9164 15.8934C37.5315 15.9147 37.1466 15.9396 36.7584 15.9609C35.9299 15.2747 35.0981 14.5885 34.2696 13.9023Z" fill="#719CC9"/>
<path d="M26.3334 23.3565C26.1246 21.0774 25.8245 18.8018 25.7364 16.5192C25.681 15.0294 26.6498 14.2258 28.0622 14.2614C29.3898 14.2934 30.1661 15.0898 30.202 16.5725C30.2509 18.6241 30.2476 20.6756 30.264 22.7272C29.5659 24.7218 28.4927 24.896 26.3334 23.3601V23.3565Z" fill="#00ABA5"/>
<path d="M42.7244 46.7911C42.7049 48.3698 42.0035 48.8533 40.5977 48.544C39.7365 48.3555 38.8036 48.3235 37.936 48.4622C36.3148 48.7218 34.8241 48.5689 33.4835 47.4773C33.167 45.8631 33.9466 44.6827 35.0687 44.0035C36.5464 43.104 38.2165 43.2782 39.6974 44.1422C40.5814 44.6578 41.3185 45.472 42.121 46.1547C42.2188 46.2613 42.3199 46.3644 42.4178 46.4711L42.4048 46.4569C42.5059 46.5707 42.6103 46.6809 42.7114 46.7947H42.7244V46.7911Z" fill="#00ABA5"/>
<path d="M11.3743 34.4711C10.2685 34.272 9.71721 33.6071 9.88683 32.352C10.0564 31.0826 10.9274 31.1004 11.8016 31.1466C14.3067 31.2817 16.8151 31.4204 19.3203 31.5591C20.1064 31.8862 20.7 32.5546 20.2662 33.376C19.9824 33.9129 19.1311 34.336 18.5113 34.3715C16.1366 34.4995 13.7554 34.4533 11.3775 34.4711H11.3743Z" fill="#719CC9"/>
<path d="M48.6644 38.9938C48.6154 39.0542 48.5567 39.0791 48.4849 39.0614C47.5423 39.0436 46.5963 39.0436 45.6536 39.0116C42.7831 38.9156 39.9127 38.8054 37.0422 38.7022C36.6247 37.472 36.928 36.8214 38.1806 36.7538C41.4327 36.5796 44.6914 36.4694 47.95 36.4267C49.2809 36.4089 49.5809 37.184 48.9971 38.7271C48.8862 38.816 48.7753 38.9049 48.6644 38.9902V38.9938Z" fill="#719CC9"/>
<path d="M33.2421 27.2533C32.8572 25.344 33.8814 23.9893 34.785 22.5884C35.1503 22.0195 35.5254 21.4578 35.8973 20.8924C36.1028 20.6507 36.305 20.4053 36.5105 20.1635C37.189 19.5058 37.8675 18.848 38.5427 18.1867C38.771 18.0871 38.9961 17.9875 39.2244 17.8844H39.3451L39.4495 17.8204C40.066 18.144 40.6825 18.464 41.299 18.7875C40.8978 19.3778 40.539 20.0071 40.0888 20.5511C38.6405 22.3004 37.1466 24.0071 35.695 25.7564C35.3003 26.2329 34.9937 26.7982 34.648 27.3244C34.3511 27.4347 34.0543 27.5413 33.7607 27.6515C33.5878 27.5164 33.4117 27.3813 33.2388 27.2498L33.2421 27.2533Z" fill="#F88E81"/>
<path d="M10.4968 40.864C9.90314 39.6836 9.28338 38.4996 11.097 37.9022C11.2503 37.8738 11.4036 37.8453 11.5569 37.8169C14.1762 37.7884 16.7955 37.76 19.4149 37.7351C19.6921 38.3004 20.3217 39.0756 20.1651 39.3849C19.8846 39.9396 19.1572 40.5156 18.5798 40.5582C15.892 40.7573 13.1911 40.7787 10.4935 40.864H10.4968Z" fill="#00ABA5"/>
<path d="M23.8706 27.2533C23.0356 28.1528 22.3767 28.1244 21.8874 26.8586C21.721 26.4284 21.434 26.0479 21.2024 25.6462C20.8305 25.1768 20.4619 24.7075 20.0901 24.2346C18.981 22.9688 17.8394 21.7351 16.7792 20.4231C16.4106 19.9644 16.2443 19.3137 15.9866 18.7484C16.5933 18.6453 17.4545 18.2115 17.7676 18.4959C19.4018 19.9679 20.9055 21.6142 22.4354 23.2248C22.7453 23.5519 22.9638 23.9893 23.2215 24.3768C23.4988 24.9848 23.7728 25.5964 24.05 26.2044C24.0696 26.3537 24.0892 26.5031 24.1087 26.6524C24.0565 26.7022 24.0468 26.7626 24.0826 26.8302L24.1838 26.8835C24.0794 27.0079 23.9717 27.1288 23.8674 27.2533H23.8706Z" fill="#F88E81"/>
<path d="M38.4937 33.5431C38.3143 33.536 38.1382 33.5289 37.9588 33.5218C37.8511 33.5005 37.7435 33.4791 37.6359 33.4613C37.1009 32.5547 37.0813 31.7476 38.2426 31.6018C40.7347 31.2925 43.2333 31.0365 45.7352 30.9049C46.231 30.88 46.7529 31.4987 47.265 31.8187C46.9388 32.3769 46.6159 32.9316 46.2897 33.4898C45.6797 33.5111 45.0697 33.5325 44.4598 33.5538C42.9886 33.5538 41.5208 33.5538 40.0497 33.5538C39.531 33.5538 39.0091 33.5467 38.4905 33.5431H38.4937Z" fill="#00ABA5"/>
<path d="M37.0422 38.7023C39.9127 38.8054 42.7831 38.9156 45.6536 39.0116C46.5963 39.0436 47.539 39.0472 48.485 39.0614C47.6662 39.168 46.8507 39.3565 46.032 39.3636C43.6149 39.3849 41.1979 39.3707 38.7808 39.2818C38.1969 39.2605 37.6228 38.9049 37.0422 38.7023Z" fill="#719CC9"/>
<path d="M38.4937 33.5431C39.0124 33.5431 39.5343 33.5502 40.0529 33.5538C39.5343 33.5538 39.0124 33.5466 38.4937 33.5431Z" fill="black"/>
<path d="M31.3273 56.5725C31.2719 56.4267 31.2132 56.2809 31.1577 56.1387C31.2132 56.2844 31.2719 56.4302 31.3273 56.5725Z" fill="#719CC9"/>
<path d="M48.6644 38.9938C48.7753 38.9049 48.8862 38.816 48.9971 38.7307C48.8862 38.8196 48.7753 38.9085 48.6644 38.9938Z" fill="black"/>
<path d="M37.6359 33.4578C37.7435 33.4791 37.8512 33.5004 37.9588 33.5182C37.8512 33.4969 37.7435 33.4755 37.6359 33.4578Z" fill="black"/>
<path d="M18.221 27.2498C17.2914 27.168 16.3063 27.2782 15.4451 26.9725C12.741 26.016 9.94881 26.7591 7.22838 26.3111C6.73583 26.2294 6.19109 26.2365 5.77031 25.9982C3.06619 24.448 2.80523 22.4605 4.96135 20.1636C6.10954 20.256 7.261 20.352 8.40919 20.4445C11.6776 21.9627 14.9493 23.4845 18.2177 25.0027C18.2177 25.7529 18.221 26.4996 18.2243 27.2498H18.221Z" fill="#2633A0"/>
<path d="M20.0314 8.49071C20.475 9.00271 20.9153 9.51827 21.3589 10.0303C21.509 10.2578 21.659 10.4854 21.8058 10.7129V10.6987C21.9004 10.9476 21.9983 11.2 22.0929 11.4489C22.0635 11.5343 22.0798 11.6054 22.1418 11.6623C22.1646 12.0854 22.1875 12.5049 22.2103 12.928C21.8156 14.7734 20.7033 16.0783 19.4051 16.2169C17.96 16.3734 16.1432 15.0685 15.5006 13.4329C15.3864 13.1378 15.2135 12.8712 15.0667 12.5938C15.0472 12.4338 15.0276 12.2738 15.008 12.1138C14.5611 8.5796 16.3715 7.48804 19.4801 8.24893C19.6693 8.29515 19.8454 8.40893 20.0281 8.49071H20.0314Z" fill="#00ABA5"/>
<path d="M29.2756 3.68002C30.7793 4.62224 31.1936 6.16179 31.0925 7.89335C31.0011 9.48624 30.0552 10.5849 28.8385 11.2391C27.4522 11.9858 25.0677 10.2294 24.9046 8.42313C24.8166 7.45957 24.8949 6.47824 24.8949 5.50757C25.906 3.61957 27.4065 3.11824 29.2789 3.68357L29.2756 3.68002Z" fill="#2633A0"/>
<path d="M21.8058 10.7129C21.6558 10.4854 21.5057 10.2578 21.359 10.0303C21.509 10.2578 21.659 10.4854 21.8058 10.7129Z" fill="black"/>
<path d="M11.097 37.6996C11.2503 37.7387 11.4036 37.7778 11.5537 37.8169C11.3971 37.8454 11.2438 37.8738 11.0937 37.9023C11.0807 37.8347 11.0807 37.7671 11.0937 37.6996H11.097Z" fill="black"/>
</svg>
